<?xml version="1.0" standalone="no"?>
<!DOCTYPE svg PUBLIC "-//W3C//DTD SVG 20010904//EN"
 "http://www.w3.org/TR/2001/REC-SVG-20010904/DTD/svg10.dtd">
<svg version="1.0" xmlns="http://www.w3.org/2000/svg"
 width="225.000000pt" height="225.000000pt" viewBox="0 0 225.000000 225.000000"
 preserveAspectRatio="xMidYMid meet">
<metadata>
Created by potrace 1.11, written by Peter Selinger 2001-2013
</metadata>
<g transform="translate(0.000000,225.000000) scale(0.100000,-0.100000)"
fill="#000000" stroke="none">
<path d="M1048 1738 c-2 -36 -7 -44 -25 -46 -21 -3 -23 -9 -23 -63 l0 -59 -35
0 -35 0 0 -175 0 -175 -54 0 c-45 0 -54 -3 -59 -20 -3 -12 -14 -20 -26 -20
-19 0 -20 -7 -23 -87 l-3 -88 -47 -3 -48 -3 0 -265 0 -264 455 0 455 0 0 265
0 265 -65 0 -65 0 0 140 0 139 -82 43 -83 43 -3 103 -3 102 -39 0 -40 0 0 60
c0 53 -2 60 -20 60 -17 0 -20 7 -20 45 l0 45 -54 0 -55 0 -3 -42z"/>
</g>
</svg>
